<?xml version="1.0" encoding="utf-8"?>
<!-- Generator: Adobe Illustrator 21.1.0, SVG Export Plug-In . SVG Version: 6.00 Build 0)  -->
<svg version="1.1" id="Layer_1" xmlns="http://www.w3.org/2000/svg" xmlns:xlink="http://www.w3.org/1999/xlink" x="0px" y="0px"
	 viewBox="0 0 1080 1080" style="enable-background:new 0 0 1080 1080;" xml:space="preserve">
<style type="text/css">
	.st0{fill:#FFFFFF;}
	.st1{fill:#C92B5C;}
	.st2{fill:#D6D7D8;stroke:#C92B5C;stroke-width:8.1575;stroke-linejoin:round;stroke-miterlimit:10;}
	.st3{fill:#FFFFFF;stroke:#C92B5C;stroke-width:8.1575;stroke-linejoin:round;stroke-miterlimit:10;}
	.st4{fill:none;}
	.st5{font-family:'ProximaNova-Bold';}
	.st6{font-size:153.2334px;}
	.st7{letter-spacing:11;}
</style>
<ellipse class="st0" cx="519.5" cy="540.4" rx="288" ry="288"/>
<g>
	<path class="st1" d="M591,454.1c11.2,0,20.2-9,20.2-20.2v-21.1c0-11.2-9-20.2-20.2-20.2c-11.1,0-20.2,9-20.2,20.2v21.1
		C570.8,445.1,579.8,454.1,591,454.1z"/>
	<path class="st2" d="M662.8,427.6h-40.7v10.2c0,17-13.8,30.8-30.8,30.8c-17,0-30.8-13.8-30.8-30.8v-10.2h-82v10.2
		c0,17-13.8,30.8-30.8,30.8c-17,0-30.8-13.8-30.8-30.8v-10.2l-41-0.5v256.9l20.5,0h246.1l20.5-0.1L662.8,427.6z"/>
	<polygon class="st3" points="642.6,663.5 396.5,663.5 396.5,499.3 642.6,499.3 642.6,663.5 	"/>
	<path class="st1" d="M447.4,454.1c11.2,0,20.2-9,20.2-20.2v-21.1c0-11.2-9-20.2-20.2-20.2c-11.2,0-20.2,9-20.2,20.2v21.1
		C427.2,445.1,436.3,454.1,447.4,454.1z"/>
	<rect x="437.8" y="529.2" class="st4" width="172.8" height="120.3"/>
	<text transform="matrix(1 0 0 1 437.7542 631.4515)"><tspan x="0" y="0" class="st1 st5 st6 st7">3</tspan><tspan x="101.4" y="0" class="st1 st5 st6">1</tspan></text>
</g>
</svg>
