<?xml version="1.0" encoding="utf-8"?>
<!-- Generator: Adobe Illustrator 21.1.0, SVG Export Plug-In . SVG Version: 6.00 Build 0)  -->
<svg version="1.1" id="Layer_1" xmlns="http://www.w3.org/2000/svg" xmlns:xlink="http://www.w3.org/1999/xlink" x="0px" y="0px"
	 viewBox="0 0 1080 1080" style="enable-background:new 0 0 1080 1080;" xml:space="preserve">
<style type="text/css">
	.st0{fill:#FFFFFF;}
	.st1{fill:#D6D7D8;stroke:#C92B5C;stroke-width:8;stroke-linecap:round;stroke-linejoin:round;stroke-miterlimit:10;}
	.st2{fill:none;stroke:#C92B5C;stroke-width:8;stroke-linecap:round;stroke-linejoin:round;stroke-miterlimit:10;}
</style>
<ellipse class="st0" cx="531" cy="493" rx="288" ry="288"/>
<g>
	<path class="st1" d="M618.2,638.2c-70.8-0.7-103.7-27.8-103.4-60.8c0.3-33,33.8-59.4,104.6-58.7C707.9,519.5,771,580,771,580
		S702.5,639.1,618.2,638.2z"/>
	<path class="st1" d="M452.6,516c70,10.2,99,41.6,94.2,74.2c-4.8,32.7-41.5,54.3-111.6,44.1c-87.6-12.8-142-81.2-142-81.2
		S369.1,503.8,452.6,516z"/>
	<g>
		<g>
			<g>
				<g>
					<path class="st0" d="M420.5,573.9c58.2,40.2,100.8,37,119.6,9.8c18.7-27.2,6.6-68.1-51.7-108.2
						c-72.9-50.3-159.3-37.2-159.3-37.2S351,526,420.5,573.9z"/>
					<path class="st2" d="M420.5,573.9c58.2,40.2,100.8,37,119.6,9.8c18.7-27.2,6.6-68.1-51.7-108.2
						c-72.9-50.3-159.3-37.2-159.3-37.2S351,526,420.5,573.9z"/>
				</g>
			</g>
		</g>
		<g>
			<g>
				<g>
					<path class="st0" d="M650.6,573.9c-58.2,40.2-100.8,37-119.6,9.8c-18.7-27.2-6.6-68.1,51.7-108.2
						c72.9-50.3,159.3-37.2,159.3-37.2S720.1,526,650.6,573.9z"/>
					<path class="st2" d="M650.6,573.9c-58.2,40.2-100.8,37-119.6,9.8c-18.7-27.2-6.6-68.1,51.7-108.2
						c72.9-50.3,159.3-37.2,159.3-37.2S720.1,526,650.6,573.9z"/>
				</g>
			</g>
		</g>
		<g>
			<g>
				<g>
					<path class="st0" d="M429.1,530.8c34.2,62,73.7,78.1,102.6,62.2c28.9-16,36.3-58,2.1-119.9C491,395.5,407.9,368.7,407.9,368.7
						S388.3,457,429.1,530.8z"/>
					<path class="st2" d="M429.1,530.8c34.2,62,73.7,78.1,102.6,62.2c28.9-16,36.3-58,2.1-119.9C491,395.5,407.9,368.7,407.9,368.7
						S388.3,457,429.1,530.8z"/>
				</g>
			</g>
		</g>
		<g>
			<g>
				<g>
					<path class="st0" d="M639.7,530.8c-34.2,62-73.7,78.1-102.6,62.2c-28.9-16-36.3-58-2.1-119.9
						c42.8-77.6,125.9-104.4,125.9-104.4S680.5,457,639.7,530.8z"/>
					<path class="st2" d="M639.7,530.8c-34.2,62-73.7,78.1-102.6,62.2c-28.9-16-36.3-58-2.1-119.9
						c42.8-77.6,125.9-104.4,125.9-104.4S680.5,457,639.7,530.8z"/>
				</g>
			</g>
		</g>
		<g>
			<g>
				<g>
					<path class="st0" d="M482.3,494.9c-3.1,70.7,22.2,105.1,55.2,106.5c33,1.4,61.2-30.6,64.3-101.3
						c3.9-88.5-53.1-154.7-53.1-154.7S486,410.6,482.3,494.9z"/>
					<path class="st2" d="M482.3,494.9c-3.1,70.7,22.2,105.1,55.2,106.5c33,1.4,61.2-30.6,64.3-101.3
						c3.9-88.5-53.1-154.7-53.1-154.7S486,410.6,482.3,494.9z"/>
				</g>
			</g>
		</g>
	</g>
</g>
</svg>
