<?xml version="1.0" encoding="utf-8"?>
<!-- Generator: Adobe Illustrator 21.1.0, SVG Export Plug-In . SVG Version: 6.00 Build 0)  -->
<svg version="1.1" id="Layer_1" xmlns="http://www.w3.org/2000/svg" xmlns:xlink="http://www.w3.org/1999/xlink" x="0px" y="0px"
	 viewBox="0 0 1080 1080" style="enable-background:new 0 0 1080 1080;" xml:space="preserve">
<style type="text/css">
	.st0{fill:#FFFFFF;stroke:#C92B5C;stroke-width:8.28;stroke-miterlimit:10;}
	.st1{fill:none;}
	.st2{fill:#D6D7D8;}
	.st3{font-family:'ProximaNova-Light';}
	.st4{font-size:198.4998px;}
	.st5{fill:#FFFFFF;}
	.st6{fill:none;stroke:#C92B5C;stroke-width:8.28;stroke-miterlimit:10;}
	.st7{fill:#D6D7D8;stroke:#C92B5C;stroke-width:8.28;stroke-miterlimit:10;}
</style>
<path class="st0" d="M848.1,527.8c0,63.3-68.2,114.7-152.4,114.7c-33.1,0-63.8-8-88.8-21.5c-25.7,30.5-61.5,23.3-61.5,23.3
	s34.7-23.3,32.7-43.6c-21.7-19.8-34.8-45.2-34.8-73c0-63.3,68.2-114.7,152.4-114.7C779.9,413.1,848.1,464.4,848.1,527.8z"/>
<rect x="627.6" y="463.1" class="st1" width="132.4" height="140.2"/>
<text transform="matrix(1 0 0 1 647.7867 595.4746)" class="st2 st3 st4">?</text>
<g>
	<g>
		<path class="st5" d="M404.5,410.3h-44.2c-38.4,0-69.8,31.4-69.8,69.8v199.6c0,38.4,31.4,69.8,69.8,69.8h44.2
			c38.4,0,69.8-31.4,69.8-69.8V480.1C474.3,441.7,442.9,410.3,404.5,410.3z"/>
		<path class="st6" d="M404.5,410.3h-44.2c-38.4,0-69.8,31.4-69.8,69.8v199.6c0,38.4,31.4,69.8,69.8,69.8h44.2
			c38.4,0,69.8-31.4,69.8-69.8V480.1C474.3,441.7,442.9,410.3,404.5,410.3z"/>
	</g>
	<path class="st0" d="M513.8,719c-0.3-15.4-10.5-29.1-25.3-33c-0.1,0-0.2-0.1-0.3-0.1l-68.1-17.2c-4-1-6.8-4.6-6.8-8.7v-2.5h-63.7
		v1.8c0,4.6-3.2,8.7-7.7,9.8L275.6,686c-0.1,0-0.2,0.1-0.3,0.1c-14.9,3.9-25.1,17.8-25.1,33.3l0,42.5h122.3h9.3h132.9L513.8,719z"/>
	<path class="st7" d="M455.4,536.5c0-2.3,0-4.5,0-6.8c-15.6,2.7-45.8-7.4-79.3-19.7c-27.8-10.2-48.5-19.7-59.7-29.5
		c-5.6,15.4-6.1,34.8-6.1,56c0,2.1,0.1,4.2,0.1,6.3c0,0,0.1,20.6,5.7,36.1c5.6,15.5,17.1,39.4,33,50.4v46.1c0,7.1,5.8,13,13,13h38.7
		c7.1,0,13-5.8,13-13V632c17.9-10.4,30.7-36.1,36.1-53.4C455.4,561.2,455.4,537.5,455.4,536.5z"/>
</g>
</svg>
