<?xml version="1.0" encoding="utf-8"?>
<!-- Generator: Adobe Illustrator 21.1.0, SVG Export Plug-In . SVG Version: 6.00 Build 0)  -->
<svg version="1.1" id="Layer_1" xmlns="http://www.w3.org/2000/svg" xmlns:xlink="http://www.w3.org/1999/xlink" x="0px" y="0px"
	 viewBox="0 0 1080 1080" style="enable-background:new 0 0 1080 1080;" xml:space="preserve">
<style type="text/css">
	.st0{fill:#FFFFFF;}
	.st1{fill-rule:evenodd;clip-rule:evenodd;fill:#19111C;stroke:#C92B5C;stroke-width:8.208;stroke-miterlimit:10;}
	.st2{fill-rule:evenodd;clip-rule:evenodd;fill:#D6D7D8;stroke:#C92B5C;stroke-width:8.208;stroke-miterlimit:10;}
</style>
<circle class="st0" cx="539.8" cy="539.9" r="288"/>
<g>
	<ellipse class="st1" cx="539.8" cy="687.4" rx="72.6" ry="24.2"/>
	<path class="st2" d="M539.8,368.1c-50,0-90.5,40.5-90.5,90.5c0,10.6,2.8,25.3,6.9,34.7l83.6,194l84-194.9
		c3.7-8.5,6.5-23.1,6.5-33.8C630.3,408.7,589.8,368.1,539.8,368.1z"/>
	<path class="st1" d="M539.8,518.7c33.6,0,61.1-27.4,61.1-61.1c0-33.6-27.4-61.1-61.1-61.1c-33.6,0-61.1,27.4-61.1,61.1
		C478.7,491.3,506.1,518.7,539.8,518.7z"/>
</g>
</svg>
