<?xml version="1.0" encoding="utf-8"?>
<!-- Generator: Adobe Illustrator 21.1.0, SVG Export Plug-In . SVG Version: 6.00 Build 0)  -->
<svg version="1.1" id="Layer_1" xmlns="http://www.w3.org/2000/svg" xmlns:xlink="http://www.w3.org/1999/xlink" x="0px" y="0px"
	 viewBox="0 0 1080 1080" style="enable-background:new 0 0 1080 1080;" xml:space="preserve">
<style type="text/css">
	.st0{fill:#FFFFFF;}
	.st1{fill:none;stroke:#C92B5C;stroke-width:8;stroke-miterlimit:10;}
	.st2{fill:#D6D7D8;stroke:#C92B5C;stroke-width:8.208;stroke-miterlimit:10;}
	.st3{fill:#19111C;stroke:#C92B5C;stroke-width:7.5449;stroke-miterlimit:10;}
</style>
<circle class="st0" cx="539.9" cy="540.4" r="288"/>
<path class="st1" d="M548.9,601.6v85.8c0,15.9-16.6,28.8-37.5,28.8l0,0c-20.9,0-37.5-12.9-37.5-28.8V571.6"/>
<path class="st1" d="M548.9,682.6V581.9c0-20.9,17.6-37.9,38.5-37.9l0,0c20.9,0,38.5,17,38.5,37.9v82.7"/>
<path class="st2" d="M657.7,364.1H474.4c-0.6,0-1.1,0-1.7,0.1c-42,1.8-75.5,36.4-75.5,78.9c0,28.5,15.1,53.5,37.8,67.3v134.3
	c0,13.3,12.9,24,28.8,24h22.6c15.9,0,28.8-10.8,28.8-24c0,0-21.2-69.1-14.8-126.5c31.7-10.2,54.7-40,54.7-75.1h102.7
	c13.3,0,24-10.8,24-24v-30.9C681.7,374.9,671,364.1,657.7,364.1z"/>
<circle class="st3" cx="475.7" cy="444.2" r="50.5"/>
</svg>
