<?xml version="1.0" encoding="utf-8"?>
<!-- Generator: Adobe Illustrator 21.1.0, SVG Export Plug-In . SVG Version: 6.00 Build 0)  -->
<svg version="1.1" id="Layer_1" xmlns="http://www.w3.org/2000/svg" xmlns:xlink="http://www.w3.org/1999/xlink" x="0px" y="0px"
	 viewBox="0 0 1080 1080" style="enable-background:new 0 0 1080 1080;" xml:space="preserve">
<style type="text/css">
	.st0{fill:#FFFFFF;stroke:#C92B5C;stroke-width:3;stroke-linecap:round;stroke-linejoin:round;stroke-miterlimit:10;}
</style>
<g>
	<path class="st0" d="M556.5,423.7c0,0-1.4-61.9,4.7-72.7c6.1-10.9,25.5-24.1,30.7-24.1c5.2,0,9,11.3,9,11.3s9.4,18.9,5.7,85.5"/>
	<path class="st0" d="M542.8,504.3v-73.9c0,0,36.8-15.2,78.3,0v75"/>
	<path class="st0" d="M570.3,354.3c0,0,5.6,0,10.2-1.9c4.6-1.9,7.4-4.4,9-6.5c2.2-3.1,1.2-5.6,1.2-5.6"/>
	<path class="st0" d="M540.3,507.7c-7.4,2.5-7.4,8.2-7.4,8.2s0,145.8,0,152.4c0,6.5,4.9,6.5,4.9,6.5h19.6h49h19.6c0,0,4.9,0,4.9-6.5
		c0-6.5,0-152.4,0-152.4s0-5.7-7.4-8.2C623.6,507.7,590.1,496.2,540.3,507.7z"/>
</g>
<path class="st0" d="M425.4,487.1c-7.4,2.8-7.4,9.2-7.4,9.2s0,164,0,171.4c0,7.4,4.9,7.4,4.9,7.4h19.6h68.6c0,0,4.9,0,4.9-7.4
	c0-7.4,0-171.4,0-171.4s0-6.4-7.4-9.2C508.8,487.1,475.3,474.3,425.4,487.1z"/>
</svg>
