<?xml version="1.0" encoding="utf-8"?>
<!-- Generator: Adobe Illustrator 21.1.0, SVG Export Plug-In . SVG Version: 6.00 Build 0)  -->
<svg version="1.1" id="Layer_1" xmlns="http://www.w3.org/2000/svg" xmlns:xlink="http://www.w3.org/1999/xlink" x="0px" y="0px"
	 viewBox="0 0 1080 1080" style="enable-background:new 0 0 1080 1080;" xml:space="preserve">
<style type="text/css">
	.st0{fill:#FFFFFF;stroke:#C92B5C;stroke-width:3;stroke-linecap:round;stroke-linejoin:round;stroke-miterlimit:10;}
	.st1{fill:#FFFFFF;}
	.st2{fill:none;stroke:#C92B5C;stroke-width:3;stroke-linecap:round;stroke-linejoin:round;stroke-miterlimit:10;}
</style>
<g>
	<path class="st0" d="M625.7,686c-70.8-0.7-103.7-27.8-103.4-60.8c0.3-33,33.8-59.4,104.6-58.7c88.6,0.9,151.6,61.3,151.6,61.3
		S710.1,686.8,625.7,686z"/>
	<path class="st0" d="M460.1,563.8c70,10.2,99,41.6,94.2,74.2c-4.8,32.7-41.5,54.3-111.6,44.1c-87.6-12.8-142-81.2-142-81.2
		S376.7,551.6,460.1,563.8z"/>
	<g>
		<g>
			<g>
				<g>
					<path class="st1" d="M428,621.6c58.2,40.2,100.8,37,119.6,9.8c18.7-27.2,6.6-68.1-51.7-108.2C423,472.9,336.6,486,336.6,486
						S358.5,573.7,428,621.6z"/>
					<path class="st2" d="M428,621.6c58.2,40.2,100.8,37,119.6,9.8c18.7-27.2,6.6-68.1-51.7-108.2C423,472.9,336.6,486,336.6,486
						S358.5,573.7,428,621.6z"/>
				</g>
			</g>
		</g>
		<g>
			<g>
				<g>
					<path class="st1" d="M658.2,621.6c-58.2,40.2-100.8,37-119.6,9.8c-18.7-27.2-6.6-68.1,51.7-108.2
						c72.9-50.3,159.3-37.2,159.3-37.2S727.6,573.7,658.2,621.6z"/>
					<path class="st2" d="M658.2,621.6c-58.2,40.2-100.8,37-119.6,9.8c-18.7-27.2-6.6-68.1,51.7-108.2
						c72.9-50.3,159.3-37.2,159.3-37.2S727.6,573.7,658.2,621.6z"/>
				</g>
			</g>
		</g>
		<g>
			<g>
				<g>
					<path class="st1" d="M436.6,578.6c34.2,62,73.7,78.1,102.6,62.2c28.9-16,36.3-58,2.1-119.9c-42.8-77.6-125.9-104.4-125.9-104.4
						S395.9,504.7,436.6,578.6z"/>
					<path class="st2" d="M436.6,578.6c34.2,62,73.7,78.1,102.6,62.2c28.9-16,36.3-58,2.1-119.9c-42.8-77.6-125.9-104.4-125.9-104.4
						S395.9,504.7,436.6,578.6z"/>
				</g>
			</g>
		</g>
		<g>
			<g>
				<g>
					<path class="st1" d="M647.3,578.6c-34.2,62-73.7,78.1-102.6,62.2c-28.9-16-36.3-58-2.1-119.9
						c42.8-77.6,125.9-104.4,125.9-104.4S688,504.7,647.3,578.6z"/>
					<path class="st2" d="M647.3,578.6c-34.2,62-73.7,78.1-102.6,62.2c-28.9-16-36.3-58-2.1-119.9
						c42.8-77.6,125.9-104.4,125.9-104.4S688,504.7,647.3,578.6z"/>
				</g>
			</g>
		</g>
		<g>
			<g>
				<g>
					<path class="st1" d="M489.9,542.7c-3.1,70.7,22.2,105.1,55.2,106.5c33,1.4,61.2-30.6,64.3-101.3
						c3.9-88.5-53.1-154.7-53.1-154.7S493.5,458.4,489.9,542.7z"/>
					<path class="st2" d="M489.9,542.7c-3.1,70.7,22.2,105.1,55.2,106.5c33,1.4,61.2-30.6,64.3-101.3
						c3.9-88.5-53.1-154.7-53.1-154.7S493.5,458.4,489.9,542.7z"/>
				</g>
			</g>
		</g>
	</g>
</g>
</svg>
