<?xml version="1.0" encoding="utf-8"?>
<!-- Generator: Adobe Illustrator 21.1.0, SVG Export Plug-In . SVG Version: 6.00 Build 0)  -->
<svg version="1.1" id="Layer_1" xmlns="http://www.w3.org/2000/svg" xmlns:xlink="http://www.w3.org/1999/xlink" x="0px" y="0px"
	 viewBox="0 0 1080 1080" style="enable-background:new 0 0 1080 1080;" xml:space="preserve">
<style type="text/css">
	.st0{fill-rule:evenodd;clip-rule:evenodd;fill:#FFFFFF;stroke:#C92B5C;stroke-width:3;stroke-miterlimit:10;}
</style>
<path class="st0" d="M539.7,469.7c40.9-20.2,78.4-11.4,105.6,24.1c7.5,9.8,12.8,21.2,19.7,31.4c8.4,12.5,16.8,25.2,26.4,36.7
	c10.4,12.3,24.7,16.7,40.8,15.9c19.9-1,29.8-11,30.2-31.3c0.1-4.7,0-9.3,0-14.2c23.8,18.1,22.4,53.1-3.3,71
	c-8.3,5.8-18.1,10.3-28,12.8c-45.8,11.5-90,7-131.6-16.4c-23.7-13.3-38.5-30.4-58.8-66.4c-2.7,4.3-5.3,8-7.4,11.9
	c-26.1,47.5-68,70.4-120.3,76c-25.5,2.7-50.9,0.8-75.1-8.9c-19.1-7.6-32.4-20.3-36.5-41.3c-3.2-16.3,1.6-27.5,17.3-38.3
	c0,6.5-0.3,12.5,0.1,18.5c1,14.9,9.6,24,24.3,26c20.8,2.9,38.6-3.5,51-20.3c11-14.8,20.8-30.7,30.1-46.7c13-22.1,30.1-39,54.3-48.4
	C500.1,453.6,520.3,457.3,539.7,469.7"/>
</svg>
