<?xml version="1.0" encoding="utf-8"?>
<!-- Generator: Adobe Illustrator 21.1.0, SVG Export Plug-In . SVG Version: 6.00 Build 0)  -->
<svg version="1.1" id="Layer_1" xmlns="http://www.w3.org/2000/svg" xmlns:xlink="http://www.w3.org/1999/xlink" x="0px" y="0px"
	 viewBox="0 0 1080 1080" style="enable-background:new 0 0 1080 1080;" xml:space="preserve">
<style type="text/css">
	.st0{fill:#FFFFFF;stroke:#C92B5C;stroke-width:3;stroke-miterlimit:10;}
	.st1{fill:#FFFFFF;stroke:#C92B5C;stroke-width:3;stroke-linecap:round;stroke-linejoin:round;stroke-miterlimit:10;}
</style>
<path class="st0" d="M565,507l-18.3-6.7c-8.4-3.1-22.5-5.7-31.4-5.7h-55.1c-8.9,0-23.1,2.6-31.5,5.7l-18.3,6.7
	c-8.3,3.1-13.8,12.8-12,21.6L424.6,659c1.7,8.8,10.5,15.9,19.4,15.9h87.5c8.9,0,17.7-7.2,19.5-15.9l26-130.4
	C578.8,519.8,573.4,510.1,565,507L565,507z M542.2,568.5"/>
<path class="st1" d="M515.3,327.8h-55.1L444,478.3h87.5L515.3,327.8z M515.3,327.8"/>
<path class="st1" d="M639.8,385.6l6.8-26.1c0,0-7.7-8.6-17.5,0l6.8,26.1"/>
<path class="st1" d="M639.3,385.1h-2.9c-2.8,0-5.1,2.3-5.1,5.1v145.1c0,2.8,2.3,5.1,5.1,5.1h2.9c2.8,0,5.1-2.3,5.1-5.1V390.2
	C644.4,387.4,642.1,385.1,639.3,385.1z"/>
<path class="st1" d="M610.3,674.9h55.1l16.3-150.5h-87.5L610.3,674.9z M610.3,674.9"/>
</svg>
