<?xml version="1.0" encoding="utf-8"?>
<!-- Generator: Adobe Illustrator 21.1.0, SVG Export Plug-In . SVG Version: 6.00 Build 0)  -->
<svg version="1.1" id="Layer_1" xmlns="http://www.w3.org/2000/svg" xmlns:xlink="http://www.w3.org/1999/xlink" x="0px" y="0px"
	 viewBox="0 0 1080 1080" style="enable-background:new 0 0 1080 1080;" xml:space="preserve">
<style type="text/css">
	.st0{fill:none;stroke:#C92B5C;stroke-width:3;stroke-miterlimit:10;}
	.st1{fill:#FFFFFF;stroke:#C92B5C;stroke-width:3;stroke-miterlimit:10;}
</style>
<g>
	<path class="st0" d="M548.1,600.1v82.2c0,15.3-16.3,27.8-36.5,27.8l0,0c-20.2,0-36.5-12.4-36.5-27.8V571.1"/>
	<path class="st0" d="M548.1,678.1v-97.5c0-20.2,17.3-36.5,37.5-36.5l0,0c20.2,0,37.5,16.3,37.5,36.5v79.5"/>
	<path class="st1" d="M653.5,370.8l-176.6,0c-0.6,0-1.1,0-1.7,0.1c-40.5,1.7-72.8,35.1-72.8,76c0,27.5,14.6,51.5,36.4,64.9l0,129.4
		c0,12.8,12.4,23.2,27.8,23.2h21.8c15.3,0,27.8-10.4,27.8-23.2c0,0-20.4-66.6-14.3-121.9c30.6-9.9,52.7-38.5,52.7-72.4l98.9,0
		c12.8,0,23.2-10.4,23.2-23.2V394C676.7,381.2,666.3,370.8,653.5,370.8z"/>
	<circle class="st0" cx="478.2" cy="448" r="48.6"/>
	<path class="st1" d="M639.5,668.8v-14.6c0-9-7.3-16.3-16.3-16.3c-9,0-16.3,7.3-16.3,16.3v14.6H639.5z"/>
</g>
</svg>
