<?xml version="1.0" encoding="utf-8"?>
<!-- Generator: Adobe Illustrator 21.1.0, SVG Export Plug-In . SVG Version: 6.00 Build 0)  -->
<svg version="1.1" id="Layer_1" xmlns="http://www.w3.org/2000/svg" xmlns:xlink="http://www.w3.org/1999/xlink" x="0px" y="0px"
	 viewBox="0 0 1080 1080" style="enable-background:new 0 0 1080 1080;" xml:space="preserve">
<style type="text/css">
	.st0{fill:#FFFFFF;}
	.st1{fill:#C92B5C;}
	.st2{fill:#D6D7D8;}
	.st3{fill:#D6D8D8;stroke:#C92B5C;stroke-width:7.5231;stroke-linecap:round;stroke-linejoin:round;stroke-miterlimit:10;}
</style>
<circle class="st0" cx="550.3" cy="525.4" r="288"/>
<g>
	<g>
		
			<rect x="336.1" y="417.8" transform="matrix(0.9371 -0.349 0.349 0.9371 -143.9108 191.1696)" class="st0" width="244.9" height="154.3"/>
		<path class="st1" d="M544,385.2l51,136.8l-221.7,82.6l-51-136.8L544,385.2 M548.8,374.6L311.6,463l56.7,152.3l237.2-88.3
			L548.8,374.6L548.8,374.6z"/>
	</g>
	<g>
		
			<rect x="312.9" y="422" transform="matrix(0.9371 -0.349 0.349 0.9371 -123.6165 179.1485)" class="st2" width="244.9" height="21.2"/>
		<path class="st1" d="M544,385.2l4.5,12.2L326.8,480l-4.5-12.2L544,385.2 M548.8,374.6L311.6,463l10.3,27.6l237.2-88.3L548.8,374.6
			L548.8,374.6z"/>
	</g>
	<g>
		
			<rect x="346.6" y="475.6" transform="matrix(0.9371 -0.349 0.349 0.9371 -153.0167 196.5634)" class="st2" width="244.9" height="94.6"/>
		<path class="st1" d="M564.8,441.2l30.1,80.9l-221.7,82.6l-30.1-80.9L564.8,441.2 M569.6,430.6l-237.2,88.3l35.9,96.4l237.2-88.3
			L569.6,430.6L569.6,430.6z"/>
	</g>
	<g>
		<rect x="427.3" y="464.6" class="st2" width="327.6" height="207.4"/>
		<path class="st1" d="M750.8,468.7v199.2H431.4V468.7H750.8 M759,460.4H423.2v215.6H759V460.4L759,460.4z"/>
	</g>
	<g>
		<rect x="427.3" y="464.6" class="st0" width="327.6" height="30.9"/>
		<path class="st1" d="M750.8,468.7v22.6H431.4v-22.6H750.8 M759,460.4H423.2v39.1H759V460.4L759,460.4z"/>
	</g>
	<g>
		<rect x="427.3" y="543.8" class="st0" width="327.6" height="128.2"/>
		<path class="st1" d="M750.8,547.9v120H431.4v-120H750.8 M759,539.6H423.2v136.4H759V539.6L759,539.6z"/>
	</g>
	<circle class="st3" cx="716.7" cy="635.9" r="16.6"/>
</g>
</svg>
