<?xml version="1.0" encoding="utf-8"?>
<!-- Generator: Adobe Illustrator 21.1.0, SVG Export Plug-In . SVG Version: 6.00 Build 0)  -->
<svg version="1.1" id="Layer_1" xmlns="http://www.w3.org/2000/svg" xmlns:xlink="http://www.w3.org/1999/xlink" x="0px" y="0px"
	 viewBox="0 0 1080 1080" style="enable-background:new 0 0 1080 1080;" xml:space="preserve">
<style type="text/css">
	.st0{fill-rule:evenodd;clip-rule:evenodd;fill:#FFFFFF;stroke:#C92B5C;stroke-width:3;stroke-miterlimit:10;}
</style>
<g>
	<path class="st0" d="M711.8,547.6c-3.9,94.9-83.9,168.7-178.8,164.9c-94.9-3.9-168.7-83.9-164.9-178.8
		c3.8-94.9,83.9-168.7,178.8-164.9C641.8,372.6,715.7,452.7,711.8,547.6z"/>
	<path class="st0" d="M664.8,545.7c-2.8,69-61,122.6-129.9,119.8c-68.9-2.8-122.6-61-119.8-129.9c2.8-68.9,60.9-122.6,129.9-119.8
		C614,418.5,667.6,476.7,664.8,545.7z"/>
	<path class="st0" d="M525.7,528.6c-67.5-32.5-13-81.5,9.1-8.5C537.7,529.8,534.7,532.9,525.7,528.6z"/>
	<path class="st0" d="M522.1,550.7c-72.3,19.5-63.1-53.2,1.3-12.4C532,543.8,531.8,548.1,522.1,550.7z"/>
	<path class="st0" d="M534,566.4c-21.2,71.9-78.3,26-9.9-7.6C533.2,554.3,536.8,556.8,534,566.4z"/>
	<path class="st0" d="M557.4,560.6c67.5,32.4,13.2,81.4-9.1,8.5C545.4,559.5,548.3,556.3,557.4,560.6z"/>
	<path class="st0" d="M560.9,538.5c72.3-19.6,63.2,53-1.3,12.4C551,545.5,551.2,541.1,560.9,538.5z"/>
	<path class="st0" d="M549,522.3c21.1-71.9,78.3-26.1,9.9,7.5C549.8,534.3,546.2,531.9,549,522.3z"/>
</g>
</svg>
