<?xml version="1.0" encoding="utf-8"?>
<!-- Generator: Adobe Illustrator 21.1.0, SVG Export Plug-In . SVG Version: 6.00 Build 0)  -->
<svg version="1.1" id="Layer_1" xmlns="http://www.w3.org/2000/svg" xmlns:xlink="http://www.w3.org/1999/xlink" x="0px" y="0px"
	 viewBox="0 0 1080 1080" style="enable-background:new 0 0 1080 1080;" xml:space="preserve">
<style type="text/css">
	.st0{fill:#FFFFFF;stroke:#C92B5C;stroke-width:3;stroke-linecap:round;stroke-linejoin:round;stroke-miterlimit:10;}
	.st1{fill:#FFFFFF;stroke:#C92B5C;stroke-width:3;stroke-miterlimit:10;}
</style>
<g>
	<path class="st0" d="M586,537.6H422.5c-3.9,0-7-3.2-7-7V506c0-3.9,3.2-7,7-7H586c3.9,0,7,3.2,7,7v24.6
		C593,534.5,589.8,537.6,586,537.6z"/>
	<path class="st0" d="M599.8,656.6c-100.5,40-195.1,0-195.1,0V527.2c0,0,132.6,10.7,195.1-2.1V656.6z"/>
	<path class="st0" d="M666.7,421.6l-145.5-45.4c-11.8-3.7-18.4-16.3-14.7-28.1v0c3.7-11.8,16.3-18.4,28.1-14.7l145.5,45.4
		c11.8,3.7,18.4,16.3,14.7,28.1l0,0C691.1,418.7,678.5,425.3,666.7,421.6z"/>
	<g>
		<path class="st1" d="M505.1,418.9c-0.4-0.8-1.4-0.8-1.8,0c-0.5,1-12.4,24-12.4,33.1c0,9.5,6,17.3,13.3,17.3
			c7.3,0,13.3-7.8,13.3-17.3C517.5,442.9,505.6,419.9,505.1,418.9L505.1,418.9z"/>
	</g>
</g>
</svg>
