<?xml version="1.0" encoding="utf-8"?>
<!-- Generator: Adobe Illustrator 21.1.0, SVG Export Plug-In . SVG Version: 6.00 Build 0)  -->
<svg version="1.1" id="Layer_1" xmlns="http://www.w3.org/2000/svg" xmlns:xlink="http://www.w3.org/1999/xlink" x="0px" y="0px"
	 viewBox="0 0 1080 1080" style="enable-background:new 0 0 1080 1080;" xml:space="preserve">
<style type="text/css">
	.st0{fill:#FFFFFF;stroke:#C92B5C;stroke-width:3;stroke-linecap:round;stroke-linejoin:round;stroke-miterlimit:10;}
	.st1{fill:#FFFFFF;stroke:#C92B5C;stroke-width:3;stroke-miterlimit:10;}
</style>
<path id="XMLID_14_" class="st0" d="M471.6,675.7c-7.9,3.7-12.3-10.7-18.6-10.7c-15.7,0-18.9-11.8-18.9-19.8c0-7.9-15.5-9-10.9-29.6
	c1-4.3,11.5-16.8,5.4-24.9c-6.1-8.2-5.9-23.2-4.1-27.4c1.7-4.2,5.8-13.4,6.6-22.1c0.9-8.7-11.1-14.5-13.2-35.4
	c-2.2-20.9,2.1-25,10-35.8c7.9-10.8,12.7-10.7,13.5-22.8c0.9-12.1,0.9-24.2,5.2-33.4c4.4-9.2,15.6-19.7,22.1-22.7
	c6.6-2.9,17.6-4.4,22.5-7.8c4.3-3,8.7-11.7,14-15.4c5.3-3.7,9.6-8.3,18.4-8.3c8.7,0,21.9-3.3,25.8-2.5c3.9,0.8,13.1,3.3,16.6,9.2
	c3.5,5.8,5.7,7.9,7.9,7.1c2.2-0.8,11.4-2.5,17.5-1.7c6.1,0.8,14,5.4,14.4,9.8c0.4,4.4-0.7,5.6,0,7.3c1.3,2.9,4.8,3.3,11.8,5.8
	c7,2.5,15.7,2.5,20.6,7.9c4.8,5.4,8.7,13.7,8.7,19.1c0,5.4-2.9,19.9-3,22.7c-0.7,14.4,20.3,36.5,18.9,51.5
	c-1.7,17.8-11.1,23.5-11.1,30.4c-0.2,17.8,12.3,36.4,11,49.7c-1.3,13.4-7.9,15.1-15.8,29.7c-7.9,14.6-3.5,13.7,1.8,27.9
	c5.2,14.2-2.3,30-13,31c-21.1,1.9-15.9,14.6-20.7,13.4c-4.8-1.2-9.7,1.7-9.7,1.7L471.6,675.7z"/>
<g>
	<path class="st1" d="M671.4,679.7c-0.3-15.4-10.5-29.1-25.3-33c-0.1,0-0.2-0.1-0.3-0.1l-68.1-17.2c-4-1-6.8-4.6-6.8-8.7v-2.5h-63.7
		v1.8c0,4.6-3.2,8.7-7.7,9.8l-66.4,16.8c-0.1,0-0.2,0.1-0.3,0.1c-14.9,3.9-25.1,17.8-25.1,33.3l0,42.5H530h9.3h132.9L671.4,679.7z"
		/>
	<path class="st1" d="M613,497.2c0-2.3,0-4.5,0-6.8c-15.6,2.7-45.8-7.4-79.3-19.7c-27.8-10.2-48.5-19.7-59.7-29.5
		c-5.6,15.4-6.1,34.8-6.1,56c0,2.1,0.1,4.2,0.1,6.3c0,0,0.1,20.6,5.7,36.1c5.6,15.5,17.1,39.4,33,50.4V636c0,7.1,5.8,13,13,13h38.7
		c7.1,0,13-5.8,13-13v-43.4c17.9-10.4,30.7-36.1,36.1-53.4C613,521.9,613,498.2,613,497.2z"/>
</g>
</svg>
