<?xml version="1.0" encoding="utf-8"?>
<!-- Generator: Adobe Illustrator 21.1.0, SVG Export Plug-In . SVG Version: 6.00 Build 0)  -->
<svg version="1.1" id="Layer_1" xmlns="http://www.w3.org/2000/svg" xmlns:xlink="http://www.w3.org/1999/xlink" x="0px" y="0px"
	 viewBox="0 0 1080 1080" style="enable-background:new 0 0 1080 1080;" xml:space="preserve">
<style type="text/css">
	.st0{fill:#C92B5C;stroke:#FFFFFF;stroke-width:8.25;stroke-miterlimit:10;}
	.st1{fill:none;stroke:#D6D7D8;stroke-width:16.6565;stroke-linecap:round;stroke-miterlimit:10;}
</style>
<g>
	<path class="st0" d="M533.2,658.8l7.7,3.9l7.7-4C674.5,593.6,674.7,504.8,674.4,496c-0.2-30.5-17.4-57.7-44.9-71.1
		c-11-5.3-22.7-8-35-7.9c-20.4,0.1-39.8,8.1-54.3,21.7c-5.8-5.4-12.4-9.9-19.6-13.4c-11-5.3-22.7-8-35-7.9
		c-21.3,0.1-41.2,8.4-56.2,23.5c-14.9,15-23.1,34.9-23.1,56.1C406,505.8,406.8,594.6,533.2,658.8z"/>
	<path class="st1" d="M609.5,454.9c0,0,26.3,6.5,33.5,41.3"/>
</g>
</svg>
