<?xml version="1.0" encoding="utf-8"?>
<!-- Generator: Adobe Illustrator 21.1.0, SVG Export Plug-In . SVG Version: 6.00 Build 0)  -->
<svg version="1.1" id="Layer_1" xmlns="http://www.w3.org/2000/svg" xmlns:xlink="http://www.w3.org/1999/xlink" x="0px" y="0px"
	 viewBox="0 0 1080 1080" style="enable-background:new 0 0 1080 1080;" xml:space="preserve">
<style type="text/css">
	.st0{fill:#FFFFFF;stroke:#979898;stroke-width:8.28;stroke-miterlimit:10;}
	.st1{fill:#FFFFFF;stroke:#D5D6D7;stroke-width:8.28;stroke-miterlimit:10;}
	.st2{fill:#FFFFFF;stroke:#C82A5B;stroke-width:5.76;stroke-miterlimit:10;}
</style>
<circle class="st0" cx="540" cy="540" r="130.3"/>
<g>
	<path class="st1" d="M611.2,533.3c0-6.7-5.4-12.1-12.1-12.1h-32.4h-7.3c0,0-3.4-1.8-1.6-10.5c1.1-5.1,13.4-39-8.8-45
		c-11.2-2-3.6,15.8-8.9,24.1c-5.3,8.3-30.7,42.2-30.7,44.2V599c0,2,1.7,3.7,3.7,3.7h26.6h37.9h5.1c6,0,10.8-4.9,10.8-10.8
		c0-2-0.5-3.8-1.4-5.4c5-0.9,8.9-5.4,8.9-10.7c0-3.6-1.8-6.8-4.5-8.8c5.7-0.3,10.2-5.1,10.2-10.8c0-6-4.9-10.8-10.8-10.8h3.3
		C605.8,545.3,611.2,540,611.2,533.3z"/>
	<path class="st2" d="M494,533.3h-22.8c-1.3,0-2.3,1.7-2.3,3.7v62c0,2,1,3.7,2.3,3.7H494c1.3,0,2.3-1.7,2.3-3.7v-62
		C496.3,535,495.3,533.3,494,533.3z"/>
</g>
</svg>
