<?xml version="1.0" encoding="utf-8"?>
<!-- Generator: Adobe Illustrator 21.1.0, SVG Export Plug-In . SVG Version: 6.00 Build 0)  -->
<svg version="1.1" id="Layer_1" xmlns="http://www.w3.org/2000/svg" xmlns:xlink="http://www.w3.org/1999/xlink" x="0px" y="0px"
	 viewBox="0 0 1080 1080" style="enable-background:new 0 0 1080 1080;" xml:space="preserve">
<style type="text/css">
	.st0{fill:#FFFFFF;}
	.st1{fill:none;stroke:#C92B5C;stroke-width:14.4;stroke-linecap:round;stroke-miterlimit:10;}
	.st2{fill:none;stroke:#D6D7D8;stroke-width:5.76;stroke-linecap:round;stroke-linejoin:round;stroke-miterlimit:10;}
	.st3{fill:none;stroke:#98999A;stroke-width:8.28;stroke-miterlimit:10;}
</style>
<path class="st0" d="M626.2,493.8c0-47.6-38.7-86.3-86.3-86.3c-47.6,0-86.3,38.7-86.3,86.3c0,19.5,6.4,37.9,18.5,53.2
	c8.5,10.7,16.8,23,23.7,34.6l0,55.4c0,18.6,15.2,33.8,33.8,33.8h20.6c18.6,0,33.8-15.2,33.8-33.8l-0.1-55.5
	c7-11.8,15.2-23.7,23.8-34.6C619.9,531.7,626.2,513.3,626.2,493.8z"/>
<path class="st1" d="M490.2,472.9c0,0,6.5-26.3,41.3-33.5"/>
<line class="st2" x1="509.6" y1="636.4" x2="570.3" y2="636.4"/>
<line class="st2" x1="509.6" y1="610.2" x2="570.3" y2="610.2"/>
<line class="st2" x1="497.6" y1="581.9" x2="586.5" y2="581.9"/>
<path class="st3" d="M626.2,495.7c0-47.6-38.7-86.3-86.3-86.3c-47.6,0-86.3,38.7-86.3,86.3c0,19.5,6.4,37.9,18.5,53.2
	c8.5,10.7,16.8,23,23.7,34.6l0,55.4c0,18.6,15.2,33.8,33.8,33.8h20.6c18.6,0,33.8-15.2,33.8-33.8l-0.1-55.5
	c7-11.8,15.2-23.7,23.8-34.6C619.9,533.6,626.2,515.2,626.2,495.7z"/>
</svg>
