<?xml version="1.0" encoding="utf-8"?>
<!-- Generator: Adobe Illustrator 21.1.0, SVG Export Plug-In . SVG Version: 6.00 Build 0)  -->
<svg version="1.1" id="Layer_1" xmlns="http://www.w3.org/2000/svg" xmlns:xlink="http://www.w3.org/1999/xlink" x="0px" y="0px"
	 viewBox="0 0 1080 1080" style="enable-background:new 0 0 1080 1080;" xml:space="preserve">
<style type="text/css">
	.st0{fill:#FFFFFF;stroke:#D6D7D8;stroke-width:8.28;stroke-linecap:round;stroke-linejoin:round;stroke-miterlimit:10;}
	.st1{fill:#FFFFFF;stroke:#98999A;stroke-width:8.28;stroke-miterlimit:10;}
	.st2{fill:#C92B5C;}
</style>
<g>
	<g>
		<path class="st0" d="M517,603.2c-3.5-0.3-6.6-1.1-9.6-2.4c-9.8-4.3-15.8-13.2-21.5-21.8c-3.2-4.8-6.3-9.3-9.7-12.6l-29.5,78.2
			l39.4-4.6l26.6,29.5l25.7-68c-0.4,0.1-0.7,0.1-1.1,0.2C530.5,602.8,523.6,603.9,517,603.2z"/>
	</g>
	<g>
		<path class="st0" d="M595.3,596.3c-2.9,2-5.9,3.3-8.9,4.2c-10.3,2.9-20.5-0.2-30.4-3.3c-5.5-1.7-10.7-3.3-15.5-3.6l26.5,79.3
			l27.7-28.4l39.2,6.1l-23.1-68.9c-0.3,0.3-0.5,0.6-0.8,0.8C605.6,587.4,600.9,592.6,595.3,596.3z"/>
	</g>
	<ellipse class="st1" cx="540.5" cy="513.5" rx="106.5" ry="106.5"/>
</g>
<g>
	<rect x="498.7" y="468.5" class="st2" width="79.3" height="9.4"/>
	<rect x="498.6" y="509" class="st2" width="55.7" height="9.2"/>
	<rect x="498.7" y="550.5" class="st2" width="79.3" height="9.2"/>
</g>
</svg>
