<?xml version="1.0" encoding="utf-8"?>
<!-- Generator: Adobe Illustrator 21.1.0, SVG Export Plug-In . SVG Version: 6.00 Build 0)  -->
<svg version="1.1" id="Layer_1" xmlns="http://www.w3.org/2000/svg" xmlns:xlink="http://www.w3.org/1999/xlink" x="0px" y="0px"
	 viewBox="0 0 1080 1080" style="enable-background:new 0 0 1080 1080;" xml:space="preserve">
<style type="text/css">
	.st0{fill:#FFFFFF;stroke:#98999A;stroke-width:8.28;stroke-miterlimit:10;}
	.st1{fill:#D6D7D8;}
	.st2{fill:#FFFFFF;}
	.st3{fill:#C92B5C;}
</style>
<g>
	<circle class="st0" cx="539.9" cy="540.3" r="130.3"/>
	<path class="st1" d="M611.3,580.9H489.7v-105c0-2.3-1.8-4.1-4.1-4.1c-2.3,0-4.1,1.8-4.1,4.1v105h-12.9c-2.3,0-4.1,1.8-4.1,4.1
		c0,2.3,1.8,4.1,4.1,4.1h12.9V602c0,2.3,1.8,4.1,4.1,4.1c2.3,0,4.1-1.8,4.1-4.1v-12.8h121.5c2.3,0,4.1-1.8,4.1-4.1
		C615.4,582.8,613.5,580.9,611.3,580.9z"/>
	<g>
		<path class="st2" d="M565.1,551.4c0.4,0.1,0.7,0.2,1.1,0.2c0.3,0,0.6,0,0.9-0.1c0.7-0.2,1.3-0.5,1.8-0.9l-1.4,2.5L565.1,551.4z
			 M538.7,548.5c0.5,0.3,1.2,0.5,1.8,0.6c0.1,0,0.2,0,0.4,0c0.5,0,1-0.1,1.5-0.3l-2,1.7L538.7,548.5z M551,541.8l1.4,0.9
			c-0.4-0.1-0.7-0.2-1.1-0.2c-0.5,0-1,0.1-1.5,0.3L551,541.8z M528.3,536.2l2.2,2.6c-0.6-0.4-1.4-0.6-2.2-0.6s-1.5,0.2-2.2,0.6
			L528.3,536.2z M597,501.5c0.4-1.3,0.1-2.8-0.8-3.8l4.5-2.6l0,5.2c-0.2,0-0.5-0.1-0.7-0.1c-0.4,0-0.7,0-1.1,0.1
			C598.2,500.5,597.5,500.9,597,501.5z"/>
		<polygon class="st3" points="604.8,487.8 588.2,497.6 593,500.3 566.2,547.4 550.7,536.6 540.9,545 528.3,529.7 497,567.8 
			503.2,572.9 528.3,542.4 539.9,556.5 551.2,546.8 568.9,559 600,504.3 604.9,507.1 604.8,487.8 		"/>
	</g>
</g>
</svg>
