<?xml version="1.0" encoding="utf-8"?>
<!-- Generator: Adobe Illustrator 21.1.0, SVG Export Plug-In . SVG Version: 6.00 Build 0)  -->
<svg version="1.1" id="Layer_1" xmlns="http://www.w3.org/2000/svg" xmlns:xlink="http://www.w3.org/1999/xlink" x="0px" y="0px"
	 viewBox="0 0 1080 1080" style="enable-background:new 0 0 1080 1080;" xml:space="preserve">
<style type="text/css">
	.st0{fill:#FFFFFF;stroke:#C92B5C;stroke-width:8.28;stroke-miterlimit:10;}
	.st1{fill:#19111C;stroke:#D6D7D8;stroke-width:8.28;stroke-miterlimit:10;}
	.st2{fill:#98999A;stroke:#D6D7D8;stroke-width:8.28;stroke-miterlimit:10;}
</style>
<g>
	<path class="st0" d="M641.9,466.8c0,63.3-68.2,114.7-152.4,114.7c-33.1,0-63.8-8-88.8-21.5c-25.7,30.5-61.5,23.3-61.5,23.3
		s34.7-23.3,32.7-43.6c-21.7-19.8-34.8-45.2-34.8-73c0-63.3,68.2-114.7,152.4-114.7C573.7,352.1,641.9,403.4,641.9,466.8z"/>
	<path class="st0" d="M773,540.9c0,24-14.8,45.9-39.1,62.4c-15.7,17.2,6.5,54.4,6.5,54.4s-33.6-0.6-49.5-34
		c-20.8,6.6-44.4,10.3-69.4,10.3c-83.7,0-151.5-41.7-151.5-93.1s67.8-93.1,151.5-93.1C705.1,447.8,773,489.5,773,540.9z"/>
	<line class="st1" x1="544.5" y1="518.2" x2="693" y2="518.2"/>
	<line class="st1" x1="544.5" y1="543.4" x2="693" y2="543.4"/>
	<line class="st2" x1="544.5" y1="569.4" x2="693" y2="569.4"/>
</g>
</svg>
