<?xml version="1.0" encoding="utf-8"?>
<!-- Generator: Adobe Illustrator 21.1.0, SVG Export Plug-In . SVG Version: 6.00 Build 0)  -->
<svg version="1.1" id="Layer_1" xmlns="http://www.w3.org/2000/svg" xmlns:xlink="http://www.w3.org/1999/xlink" x="0px" y="0px"
	 viewBox="0 0 1080 1080" style="enable-background:new 0 0 1080 1080;" xml:space="preserve">
<style type="text/css">
	.st0{fill:#FFFFFF;}
	.st1{fill:#C92B5C;}
	.st2{fill:#D6D7D8;stroke:#C92B5C;stroke-width:8.208;stroke-miterlimit:10;}
</style>
<g>
	<path class="st0" d="M538.8,697.1c-86.8,0-157.4-70.6-157.4-157.4c0-86.8,70.6-157.4,157.4-157.4c42,0,81.6,16.4,111.3,46.1
		c29.7,29.7,46.1,69.3,46.1,111.3C696.2,626.5,625.6,697.1,538.8,697.1z"/>
	<path class="st1" d="M538.8,386.4c40.9,0,79.4,15.9,108.4,44.9c28.9,29,44.9,67.5,44.9,108.4c0,40.9-15.9,79.4-44.9,108.4
		c-29,29-67.4,44.9-108.4,44.9c-41,0-79.5-15.9-108.4-44.9c-29-29-44.9-67.4-44.9-108.4c0-40.9,15.9-79.4,44.9-108.4
		C459.3,402.3,497.8,386.4,538.8,386.4 M538.8,378.2c-89.2,0-161.5,72.3-161.5,161.5c0,89.2,72.3,161.5,161.5,161.5
		c89.2,0,161.5-72.3,161.5-161.5C700.3,450.5,628,378.2,538.8,378.2L538.8,378.2z"/>
</g>
<path class="st2" d="M602.9,451.4c-7.3-5.1-15.3-3.2-18.6,1.4c-2,2.8-22.6,33.7-24.9,37.4c-1,1.6-1.5,3.6-1.5,5.8
	c0,2.8,0.8,5.9,2.4,9c1.6,3,6.7,12,9.2,16.4c-2.7,3.9-9.7,13-24.1,27.3c-14.3,14.3-23.5,21.3-27.4,24c-4.4-2.5-13.4-7.6-16.4-9.2
	c-5.6-2.9-11.2-3.3-14.9-0.9c-3.6,2.2-34.3,22.7-37.2,24.8c-2.8,2-4.3,5.5-4.3,9.4c0,3,0.9,6.3,2.9,9.1c0.2,0.3,19.5,27.4,30.8,27
	c31.5-1,68.5-31.5,94-56.9c25.5-25.4,56.1-62.3,57.1-93.8V482C630,471,603.2,451.6,602.9,451.4"/>
</svg>
