<?xml version="1.0" encoding="utf-8"?>
<!-- Generator: Adobe Illustrator 21.1.0, SVG Export Plug-In . SVG Version: 6.00 Build 0)  -->
<svg version="1.1" id="Layer_1" xmlns="http://www.w3.org/2000/svg" xmlns:xlink="http://www.w3.org/1999/xlink" x="0px" y="0px"
	 viewBox="0 0 1080 1080" style="enable-background:new 0 0 1080 1080;" xml:space="preserve">
<style type="text/css">
	.st0{fill:#D6D7D8;}
	.st1{fill:none;stroke:#C92B5C;stroke-width:8.28;stroke-miterlimit:10;}
	.st2{fill:#19111C;stroke:#C92B5C;stroke-width:8.28;stroke-miterlimit:10;}
	.st3{fill:#FFFFFF;stroke:#C92B5C;stroke-width:8.28;stroke-miterlimit:10;}
	.st4{fill:none;}
	.st5{fill:#19111C;}
	.st6{font-family:'ProximaNova-Light';}
	.st7{font-size:198.4998px;}
</style>
<g>
	<g>
		<path class="st0" d="M395.7,376.6h-44.2c-38.4,0-69.8,31.4-69.8,69.8V646c0,38.4,31.4,69.8,69.8,69.8h44.2
			c38.4,0,69.8-31.4,69.8-69.8V446.4C465.5,408,434.1,376.6,395.7,376.6z"/>
		<path class="st1" d="M395.7,376.6h-44.2c-38.4,0-69.8,31.4-69.8,69.8V646c0,38.4,31.4,69.8,69.8,69.8h44.2
			c38.4,0,69.8-31.4,69.8-69.8V446.4C465.5,408,434.1,376.6,395.7,376.6z"/>
	</g>
	<path class="st2" d="M505,685.3c-0.3-15.4-10.5-29.1-25.3-33c-0.1,0-0.2-0.1-0.3-0.1l-68.1-17.2c-4-1-6.8-4.6-6.8-8.7V624h-63.7
		v1.8c0,4.6-3.2,8.7-7.7,9.8l-66.4,16.8c-0.1,0-0.2,0.1-0.3,0.1c-14.9,3.9-25.1,17.8-25.1,33.3l0,42.5h122.3h9.3h132.9L505,685.3z"
		/>
	<path class="st3" d="M446.6,502.8c0-2.3,0-4.5,0-6.8c-15.6,2.7-45.8-7.4-79.3-19.7c-27.8-10.2-48.5-19.7-59.7-29.5
		c-5.6,15.4-6.1,34.8-6.1,56c0,2.1,0.1,4.2,0.1,6.3c0,0,0.1,20.6,5.7,36.1c5.6,15.5,17.1,39.4,33,50.4v46.1c0,7.1,5.8,13,13,13h38.7
		c7.1,0,13-5.8,13-13v-43.4c17.9-10.4,30.7-36.1,36.1-53.4C446.6,527.5,446.6,503.8,446.6,502.8z"/>
</g>
<path class="st3" d="M839.3,492.4c0,63.3-68.2,114.7-152.4,114.7c-33.1,0-63.8-8-88.8-21.5c-25.7,30.5-61.5,23.3-61.5,23.3
	s34.7-23.3,32.7-43.6c-21.7-19.8-34.8-45.2-34.8-73c0-63.3,68.2-114.7,152.4-114.7C771.1,377.7,839.3,429,839.3,492.4z"/>
<rect x="618.9" y="427.7" class="st4" width="132.4" height="140.2"/>
<text transform="matrix(1 0 0 1 639.0084 560.0757)" class="st5 st6 st7">?</text>
</svg>
