<?xml version="1.0" encoding="utf-8"?>
<!-- Generator: Adobe Illustrator 21.1.0, SVG Export Plug-In . SVG Version: 6.00 Build 0)  -->
<svg version="1.1" id="Layer_1" xmlns="http://www.w3.org/2000/svg" xmlns:xlink="http://www.w3.org/1999/xlink" x="0px" y="0px"
	 viewBox="0 0 1080 1080" style="enable-background:new 0 0 1080 1080;" xml:space="preserve">
<style type="text/css">
	.st0{fill:#FFFFFF;}
	.st1{fill:#D5D6D7;stroke:#C82A5B;stroke-width:8.208;stroke-linecap:round;stroke-linejoin:round;stroke-miterlimit:10;}
	.st2{fill:#18101B;}
	.st3{fill:#C82A5B;}
</style>
<circle class="st0" cx="540" cy="540" r="288"/>
<path class="st1" d="M685.9,446c-0.1-2.7-2.3-4.8-5.1-4.8H526.4l-45.1-41.8c-0.9-0.9-2.2-1.4-3.4-1.4H407c-1.4,0-2.7,0.6-3.7,1.6
	l-40.5,43.2c-0.9,1-1.4,2.3-1.4,3.7l10.1,230.8c0.1,2.7,2.3,4.8,5.1,4.8H691c1.4,0,2.7-0.6,3.7-1.6c1-1,1.5-2.3,1.4-3.7L685.9,446z"
	/>
<g>
	<path class="st2" d="M383.4,648.1c-0.8,0-1.4-0.6-1.5-1.4l-5.8-173.3c0-0.8,0.6-1.5,1.4-1.5c0,0,294.6-9.8,294.6-9.8
		c0.8,0,1.5,0.6,1.5,1.4l5.8,173.3c0,0.8-0.6,1.5-1.4,1.5L383.4,648.1z"/>
	<path class="st3" d="M672.3,465.8L672.3,465.8L672.3,465.8 M670.2,465.8l5.6,169l-290.3,9.6l-5.6-169L670.2,465.8 M672.2,458.6
		c-0.1,0-0.1,0-0.2,0l-294.6,9.8c-2.8,0.1-5,2.4-4.9,5.2l5.8,173.3c0.1,2.7,2.3,4.9,5.1,4.9c0.1,0,0.1,0,0.2,0l294.6-9.8
		c2.8-0.1,5-2.4,4.9-5.2l-5.8-173.3C677.2,460.7,675,458.6,672.2,458.6L672.2,458.6z"/>
</g>
<g>
	<path class="st2" d="M675.9,647.7c-0.1,0-0.1,0-0.2,0l-292.7-35.4c-0.8-0.1-1.4-0.8-1.3-1.6l20.8-172.1c0.1-0.7,0.7-1.3,1.4-1.3
		c0.1,0,0.1,0,0.2,0l292.7,35.4c0.8,0.1,1.4,0.8,1.3,1.6l-20.8,172.1C677.3,647.1,676.7,647.7,675.9,647.7z"/>
	<path class="st3" d="M406.2,439L406.2,439L406.2,439 M405.9,441.1l288.4,34.8l-20.3,167.9L385.7,609L405.9,441.1 M404.1,433.7
		c-2.5,0-4.7,1.9-5,4.5l-20.8,172.1c-0.3,2.8,1.6,5.3,4.4,5.6l292.7,35.4c0.2,0,0.4,0,0.6,0c2.5,0,4.7-1.9,5-4.5l20.8-172.1
		c0.3-2.8-1.6-5.3-4.4-5.6l-292.7-35.4C404.5,433.7,404.3,433.7,404.1,433.7L404.1,433.7z"/>
</g>
<path class="st1" d="M735.3,424.8c-1-1.1-2.4-1.8-3.9-1.8H575c-1.3,0-2.5,0.5-3.4,1.3l-45.1,41.8H417.1c-2.4,0-4.5,1.7-5,4.1
	L371.7,676c-0.3,1.5,0.1,3,1.1,4.2c1,1.2,2.4,1.8,3.9,1.8H691c2.5,0,4.6-1.8,5-4.2l40.5-248.9C736.7,427.4,736.3,425.9,735.3,424.8z
	"/>
</svg>
