<?xml version="1.0" encoding="utf-8"?>
<!-- Generator: Adobe Illustrator 21.1.0, SVG Export Plug-In . SVG Version: 6.00 Build 0)  -->
<svg version="1.1" id="Layer_1" xmlns="http://www.w3.org/2000/svg" xmlns:xlink="http://www.w3.org/1999/xlink" x="0px" y="0px"
	 viewBox="0 0 1080 1080" style="enable-background:new 0 0 1080 1080;" xml:space="preserve">
<style type="text/css">
	.st0{fill:#FFFFFF;}
	.st1{fill:#D6D7D8;}
	.st2{fill:#C92B5C;}
	.st3{fill:#19111C;}
	.st4{fill:#D6D8D8;stroke:#C92B5C;stroke-width:7.5231;stroke-linecap:round;stroke-linejoin:round;stroke-miterlimit:10;}
</style>
<circle class="st0" cx="540.2" cy="570.4" r="288"/>
<g>
	<g>
		
			<rect x="327.1" y="462.7" transform="matrix(0.9371 -0.349 0.349 0.9371 -160.153 190.8212)" class="st1" width="244.9" height="154.3"/>
		<path class="st2" d="M534.9,430.2l51,136.8l-221.7,82.6l-51-136.8L534.9,430.2 M539.7,419.5l-237.2,88.3l56.7,152.3l237.2-88.3
			L539.7,419.5L539.7,419.5z"/>
	</g>
	<g>
		
			<rect x="303.8" y="466.9" transform="matrix(0.9371 -0.349 0.349 0.9371 -139.8586 178.8003)" class="st3" width="244.9" height="21.2"/>
		<path class="st2" d="M534.9,430.2l4.5,12.2l-221.7,82.6l-4.5-12.2L534.9,430.2 M539.7,419.5l-237.2,88.3l10.3,27.6L550,447.2
			L539.7,419.5L539.7,419.5z"/>
	</g>
	<g>
		
			<rect x="337.5" y="520.5" transform="matrix(0.9371 -0.349 0.349 0.9371 -169.2589 196.2149)" class="st3" width="244.9" height="94.6"/>
		<path class="st2" d="M555.7,486.1l30.1,80.9l-221.7,82.6L334,568.7L555.7,486.1 M560.6,475.5l-237.2,88.3l35.9,96.4l237.2-88.3
			L560.6,475.5L560.6,475.5z"/>
	</g>
	<g>
		<rect x="418.2" y="509.5" class="st3" width="327.6" height="207.4"/>
		<path class="st2" d="M741.7,513.6v199.2H422.3V513.6H741.7 M749.9,505.3H414.1V721h335.9V505.3L749.9,505.3z"/>
	</g>
	<g>
		<rect x="418.2" y="509.5" class="st1" width="327.6" height="30.9"/>
		<path class="st2" d="M741.7,513.6v22.6H422.3v-22.6H741.7 M749.9,505.3H414.1v39.1h335.9V505.3L749.9,505.3z"/>
	</g>
	<g>
		<rect x="418.2" y="588.7" class="st1" width="327.6" height="128.2"/>
		<path class="st2" d="M741.7,592.8v120H422.3v-120H741.7 M749.9,584.5H414.1V721h335.9V584.5L749.9,584.5z"/>
	</g>
	<circle class="st4" cx="707.6" cy="680.8" r="16.6"/>
</g>
</svg>
