<?xml version="1.0" encoding="utf-8"?>
<!-- Generator: Adobe Illustrator 21.1.0, SVG Export Plug-In . SVG Version: 6.00 Build 0)  -->
<svg version="1.1" id="Layer_1" xmlns="http://www.w3.org/2000/svg" xmlns:xlink="http://www.w3.org/1999/xlink" x="0px" y="0px"
	 viewBox="0 0 1080 1080" style="enable-background:new 0 0 1080 1080;" xml:space="preserve">
<style type="text/css">
	.st0{fill:#FFFFFF;}
	.st1{fill:#D6D7D8;}
	.st2{fill:#C92B5C;}
	.st3{fill:#19111C;}
</style>
<g>
	<circle class="st0" cx="540" cy="540" r="288"/>
	<g>
		<path class="st1" d="M539,692c-52.1-19.2-91.5-53-111-95.3c-11.1-24.1-18-59.9-19.7-103.5c-1-25.8,0-47.3,0.5-55.7
			c42.2-0.8,76.5-15.1,98.2-27.1c17.9-9.9,30-19.8,35.3-24.5c4.8,4.8,15.7,14.6,32.2,24.4c20.1,12,52.7,26.3,94.9,27.2
			c0.5,8.5,1.5,30.4,0.5,56.6c-1.8,44.1-8.6,80.2-19.7,104.3C630.8,640.1,592.4,672.4,539,692z"/>
		<path class="st2" d="M542.1,391.5c5.8,5.4,16,13.9,30.2,22.4c20,11.9,51.9,26,93.1,27.6c1.3,24.9,3.4,106.6-19,155.2
			c-18.6,40.3-55.7,71.7-107.3,91c-50.4-18.9-88.4-51.7-107.3-92.6c-22.4-48.5-20.3-128.9-19-153.5c41.3-1.6,74.9-15.6,96.3-27.5
			C524.4,405.4,535.7,396.8,542.1,391.5 M542.4,380.2c0,0-54.2,53.2-137.5,53.2c0,0-8.5,104.8,19.3,165
			c19.4,42,58.6,77.6,114.8,97.9c56.2-20.3,95.4-54.3,114.8-96.3c27.8-60.2,19.3-166.7,19.3-166.7
			C589.7,433.5,542.4,380.2,542.4,380.2L542.4,380.2z"/>
	</g>
	<g>
		<g>
			<polygon class="st3" points="464.9,547.9 488.6,524.2 517,552.6 592.1,477.5 615.8,501.1 517,599.9 			"/>
			<path class="st2" d="M592.1,483.3l17.9,17.9l-69.4,69.4L517,594.1l-23.7-23.7l-22.6-22.6l17.9-17.9l22.6,22.6l5.8,5.8l5.8-5.8
				L592.1,483.3 M592.1,471.7L517,546.8l-28.4-28.4l-29.5,29.5l28.4,28.4l29.5,29.5l29.5-29.5l75.2-75.2L592.1,471.7L592.1,471.7z"
				/>
		</g>
	</g>
</g>
</svg>
