<?xml version="1.0" encoding="utf-8"?>
<!-- Generator: Adobe Illustrator 21.1.0, SVG Export Plug-In . SVG Version: 6.00 Build 0)  -->
<svg version="1.1" id="Layer_1" xmlns="http://www.w3.org/2000/svg" xmlns:xlink="http://www.w3.org/1999/xlink" x="0px" y="0px"
	 viewBox="0 0 1080 1080" style="enable-background:new 0 0 1080 1080;" xml:space="preserve">
<style type="text/css">
	.st0{fill:#FFFFFF;}
	.st1{fill:#979898;}
	.st2{fill:#9CD7D7;stroke:#979898;stroke-width:3.6;stroke-miterlimit:10;}
	.st3{fill:#9CD7D7;stroke:#979898;stroke-width:3.6;stroke-linejoin:round;stroke-miterlimit:10;}
	.st4{fill:#FFFFFF;stroke:#979898;stroke-width:3.6;stroke-linejoin:round;stroke-miterlimit:10;}
	.st5{fill:none;}
	.st6{font-family:'ProximaNova-Bold';}
	.st7{font-size:153.2334px;}
	.st8{letter-spacing:9;}
</style>
<g>
	<g>
		<path class="st0" d="M356.9,674.5c-72.4,0-131.3-58.9-131.3-131.3s58.9-131.3,131.3-131.3c35.1,0,68,13.7,92.8,38.5
			c24.8,24.8,38.4,57.8,38.4,92.9C488.2,615.6,429.3,674.5,356.9,674.5z"/>
		<path class="st1" d="M356.9,413.7c34.6,0,67.1,13.5,91.6,37.9c24.5,24.5,37.9,57,37.9,91.6s-13.5,67.1-37.9,91.5
			c-24.5,24.5-57,37.9-91.5,37.9c-34.6,0-67.1-13.5-91.6-37.9c-24.5-24.5-37.9-57-37.9-91.6s13.5-67.1,37.9-91.6
			C289.8,427.2,322.3,413.7,356.9,413.7 M356.9,410.1c-73.5,0-133.1,59.6-133.1,133.1s59.6,133.1,133.1,133.1S490,616.7,490,543.2
			C490,469.8,430.4,410.1,356.9,410.1L356.9,410.1z"/>
	</g>
	<path class="st2" d="M412.4,581.2l-38.1-38.1l38.1-38.1c4.7-4.7,4.7-12.3,0-17s-12.3-4.7-17,0l-38.1,38.1l-0.6,0.6l-0.4-0.4l0,0
		l-38.1-38.1c-4.7-4.7-12.3-4.7-17,0s-4.7,12.3,0,17l38.1,38.1l-38.1,38.1c-4.7,4.7-4.7,12.3,0,17s12.3,4.7,17,0l38.1-38.1l0.6-0.6
		l0.4,0.4l0,0l38.1,38.1c4.7,4.7,12.3,4.7,17,0S417.1,585.9,412.4,581.2z"/>
</g>
<g>
	<g>
		<path class="st0" d="M784.2,440c-10.1,0-18.4-8.2-18.4-18.4v-21.1c0-10.2,8.2-18.4,18.4-18.4s18.4,8.3,18.4,18.4v21.1
			C802.6,431.8,794.2,440,784.2,440z"/>
		<path class="st1" d="M784.2,383.9c9.2,0,16.6,7.5,16.6,16.6v21.1c0,9.1-7.5,16.6-16.6,16.6s-16.6-7.4-16.6-16.6v-21.1
			C767.6,391.3,775,383.9,784.2,383.9 M784.2,380.3c-11.1,0-20.2,9-20.2,20.2v21.1c0,11.2,9,20.2,20.2,20.2s20.2-9,20.2-20.2v-21.1
			C804.4,389.3,795.4,380.3,784.2,380.3L784.2,380.3z"/>
	</g>
	<path class="st3" d="M856,415.3h-40.7v10.2c0,17-13.8,30.8-30.8,30.8s-30.8-13.8-30.8-30.8v-10.2h-82v10.2
		c0,17-13.8,30.8-30.8,30.8s-30.8-13.8-30.8-30.8v-10.2l-40.9-0.6v256.9h20.5h246.1l20.5-0.1L856,415.3z"/>
	<polygon class="st4" points="835.8,651.2 589.7,651.2 589.7,487 835.8,487 	"/>
	<g>
		<path class="st0" d="M640.5,440c-10.1,0-18.4-8.2-18.4-18.4v-21.1c0-10.2,8.2-18.4,18.4-18.4s18.4,8.3,18.4,18.4v21.1
			C659,431.8,650.8,440,640.5,440z"/>
		<path class="st1" d="M640.5,383.9c9.2,0,16.6,7.5,16.6,16.6v21.1c0,9.1-7.5,16.6-16.6,16.6s-16.6-7.4-16.6-16.6v-21.1
			C624,391.3,631.5,383.9,640.5,383.9 M640.5,380.3c-11.2,0-20.2,9-20.2,20.2v21.1c0,11.2,9,20.2,20.2,20.2s20.2-9,20.2-20.2v-21.1
			C660.9,389.3,651.8,380.3,640.5,380.3L640.5,380.3z"/>
	</g>
	<rect x="631" y="517" class="st5" width="172.8" height="120.3"/>
	<text transform="matrix(1 0 0 1 630.922 619.1701)" class="st1 st6 st7 st8">3</text>
	<text transform="matrix(1 0 0 1 732.322 619.1701)" class="st1 st6 st7">1</text>
</g>
</svg>
