<?xml version="1.0" encoding="utf-8"?>
<!-- Generator: Adobe Illustrator 21.1.0, SVG Export Plug-In . SVG Version: 6.00 Build 0)  -->
<svg version="1.1" id="Layer_1" xmlns="http://www.w3.org/2000/svg" xmlns:xlink="http://www.w3.org/1999/xlink" x="0px" y="0px"
	 viewBox="0 0 1080 1080" style="enable-background:new 0 0 1080 1080;" xml:space="preserve">
<style type="text/css">
	.st0{fill:#9CD7D7;stroke:#979898;stroke-width:3.6;stroke-miterlimit:10;}
	.st1{fill:#FFFFFF;stroke:#979898;stroke-width:3.6;stroke-miterlimit:10;}
	.st2{fill:none;stroke:#979898;stroke-width:3.6;stroke-miterlimit:10;}
	.st3{fill:#9CD7D7;}
</style>
<g>
	<path class="st0" d="M452.2,521.8c0,63.3-68.2,114.7-152.4,114.7c-33.1,0-63.8-8-88.8-21.5c-25.7,30.5-61.5,23.3-61.5,23.3
		s34.7-23.3,32.7-43.6c-21.7-19.8-34.8-45.2-34.8-73c0-63.3,68.2-114.7,152.4-114.7C384,407.1,452.2,458.4,452.2,521.8z"/>
	<path class="st1" d="M583.2,595.9c0,24-14.8,45.9-39.1,62.4c-15.7,17.2,6.5,54.4,6.5,54.4s-33.6-0.6-49.5-34
		c-20.8,6.6-44.4,10.3-69.4,10.3c-83.7,0-151.5-41.7-151.5-93.1c0-51.4,67.8-93.1,151.5-93.1C515.4,502.8,583.2,544.5,583.2,595.9z"
		/>
	<line class="st2" x1="354.8" y1="573.2" x2="503.3" y2="573.2"/>
	<line class="st2" x1="354.8" y1="598.4" x2="503.3" y2="598.4"/>
	<line class="st2" x1="354.8" y1="624.4" x2="503.3" y2="624.4"/>
</g>
<g>
	<g>
		<path class="st3" d="M822.3,364.2h-44.2c-38.4,0-69.8,31.4-69.8,69.8v199.6c0,38.4,31.4,69.8,69.8,69.8h44.2
			c38.4,0,69.8-31.4,69.8-69.8V434C892,395.6,860.6,364.2,822.3,364.2z"/>
		<path class="st2" d="M822.3,364.2h-44.2c-38.4,0-69.8,31.4-69.8,69.8v199.6c0,38.4,31.4,69.8,69.8,69.8h44.2
			c38.4,0,69.8-31.4,69.8-69.8V434C892,395.6,860.6,364.2,822.3,364.2z"/>
	</g>
	<path class="st1" d="M931.6,673c-0.3-15.4-10.5-29.1-25.3-33c-0.1,0-0.2-0.1-0.3-0.1l-68.1-17.2c-4-1-6.8-4.6-6.8-8.7v-2.5h-63.7
		v1.8c0,4.6-3.2,8.7-7.7,9.8l-66.4,16.8c-0.1,0-0.2,0.1-0.3,0.1c-14.9,3.9-25.1,17.8-25.1,33.3v42.5h122.3h9.3h132.9L931.6,673z"/>
	<path class="st1" d="M873.1,490.4c0-2.3,0-4.5,0-6.8c-15.6,2.7-45.8-7.4-79.3-19.7c-27.8-10.2-48.5-19.7-59.7-29.5
		c-5.6,15.4-6.1,34.8-6.1,56c0,2.1,0.1,4.2,0.1,6.3c0,0,0.1,20.6,5.7,36.1s17.1,39.4,33,50.4v46.1c0,7.1,5.8,13,13,13h38.7
		c7.1,0,13-5.8,13-13v-43.4c17.9-10.4,30.7-36.1,36.1-53.4C873.1,515.1,873.1,491.4,873.1,490.4z"/>
</g>
</svg>
