<?xml version="1.0" encoding="utf-8"?>
<!-- Generator: Adobe Illustrator 21.1.0, SVG Export Plug-In . SVG Version: 6.00 Build 0)  -->
<svg version="1.1" id="Layer_1" xmlns="http://www.w3.org/2000/svg" xmlns:xlink="http://www.w3.org/1999/xlink" x="0px" y="0px"
	 viewBox="0 0 1080 1080" style="enable-background:new 0 0 1080 1080;" xml:space="preserve">
<style type="text/css">
	.st0{fill:#FFFFFF;}
	.st1{fill:#C92B5C;}
	.st2{fill:#D6D7D8;stroke:#C92B5C;stroke-width:4.5807;stroke-miterlimit:10;}
</style>
<g>
	<g>
		<path class="st0" d="M539.8,669.1c-71.1,0-129-57.8-129-129c0-71.1,57.9-129,129-129c34.4,0,66.8,13.4,91.2,37.8
			c24.4,24.4,37.8,56.8,37.8,91.2C668.8,611.2,610.9,669.1,539.8,669.1z"/>
		<path class="st1" d="M539.8,415.3c33.3,0,64.7,13,88.3,36.6c23.6,23.6,36.6,54.9,36.6,88.3c0,33.3-13,64.7-36.6,88.3
			C604.5,652,573.1,665,539.8,665c-33.4,0-64.7-13-88.3-36.6c-23.6-23.6-36.6-54.9-36.6-88.3c0-33.3,13-64.7,36.6-88.3
			C475.1,428.2,506.5,415.3,539.8,415.3 M539.8,407c-73.5,0-133.1,59.6-133.1,133.1c0,73.5,59.6,133.1,133.1,133.1
			c73.5,0,133.1-59.6,133.1-133.1C672.9,466.6,613.3,407,539.8,407L539.8,407z"/>
	</g>
	<path class="st2" d="M546.4,528.3l0-53.8c0-6.6-5.4-12-12-12c-6.6,0-12,5.3-12,12v53.8v24v0h24v0l53.8,0c6.6,0,12-5.4,12-12
		c0-6.7-5.4-12-12-12H546.4z"/>
</g>
</svg>
