<?xml version="1.0" encoding="utf-8"?>
<!-- Generator: Adobe Illustrator 21.1.0, SVG Export Plug-In . SVG Version: 6.00 Build 0)  -->
<svg version="1.1" id="Layer_1" xmlns="http://www.w3.org/2000/svg" xmlns:xlink="http://www.w3.org/1999/xlink" x="0px" y="0px"
	 viewBox="0 0 1080 1080" style="enable-background:new 0 0 1080 1080;" xml:space="preserve">
<style type="text/css">
	.st0{fill:#FFFFFF;}
	.st1{fill:#C92B5C;}
	.st2{fill:#D6D7D8;}
</style>
<g>
	<path class="st0" d="M539.6,694.2c-52.1-19.2-91.5-53-111-95.3c-11.1-24.1-18-59.9-19.7-103.4c-1-25.8,0-47.4,0.5-55.8
		c42.2-0.8,76.5-15.1,98.2-27.1c17.9-9.9,30-19.8,35.3-24.5c4.8,4.8,15.7,14.6,32.2,24.4c20.1,12,52.7,26.3,94.9,27.2
		c0.5,8.5,1.5,30.4,0.5,56.6c-1.8,44.1-8.6,80.2-19.7,104.3C631.4,642.2,593.1,674.6,539.6,694.2z"/>
	<path class="st1" d="M542.7,393.6c5.8,5.4,16,13.9,30.2,22.4c20,11.9,51.9,26,93.1,27.6c1.3,24.9,3.4,106.6-19,155.2
		c-18.6,40.3-55.7,71.7-107.3,91c-50.4-18.9-88.4-51.7-107.3-92.6c-22.4-48.5-20.3-128.9-19-153.5c41.3-1.6,74.9-15.6,96.3-27.5
		C525,407.6,536.3,399,542.7,393.6 M543,382.4c0,0-54.2,53.2-137.5,53.2c0,0-8.5,104.8,19.3,165c19.4,42,58.6,77.6,114.8,97.9
		c56.2-20.3,95.4-54.3,114.8-96.3c27.8-60.2,19.3-166.7,19.3-166.7C590.4,435.6,543,382.4,543,382.4L543,382.4z"/>
</g>
<g>
	<g>
		<polygon class="st2" points="465.5,550 489.2,526.4 517.6,554.8 592.7,479.6 616.4,503.3 517.6,602.1 		"/>
		<path class="st1" d="M592.7,485.4l17.9,17.9l-69.4,69.4l-23.7,23.7l-23.7-23.7L471.3,550l17.9-17.9l22.6,22.6l5.8,5.8l5.8-5.8
			L592.7,485.4 M592.7,473.8L517.6,549l-28.4-28.4L459.7,550l28.4,28.4l29.5,29.5l29.5-29.5l75.2-75.2L592.7,473.8L592.7,473.8z"/>
	</g>
</g>
</svg>
