<?xml version="1.0" encoding="utf-8"?>
<!-- Generator: Adobe Illustrator 21.1.0, SVG Export Plug-In . SVG Version: 6.00 Build 0)  -->
<svg version="1.1" id="Layer_1" xmlns="http://www.w3.org/2000/svg" xmlns:xlink="http://www.w3.org/1999/xlink" x="0px" y="0px"
	 viewBox="0 0 1080 1080" style="enable-background:new 0 0 1080 1080;" xml:space="preserve">
<style type="text/css">
	.st0{fill:#FFFFFF;stroke:#98999A;stroke-width:8.28;stroke-linecap:round;stroke-linejoin:round;stroke-miterlimit:10;}
	.st1{fill:#C92B5C;}
</style>
<path class="st0" d="M538.1,408.5c-21.1,0-53.1,4.8-77.8,30.8C434,465.7,434,486.6,437.6,500c3.6,13.4,10.9,15.5,3.7,29.3
	c0,0-15.5,27.2-14.9,31.8c0,0-0.3,8.3,12.5,8.5c0,0,3.2,0.4,2.3,7.5c0,0,8.1,54.1,13.2,57.2c0,0,3.9,4.7,18.4,4.7
	c3,0,6.5-0.2,10.5-0.7c3.6-0.4,8.6-1.5,13.9-1.5c6.4,0,13.2,1.6,18.1,7.8c0,0,9.8,13.6,11.4,23.2c0,0,17.9,2.7,41.8,2.7
	c15.9,0,34.5-1.2,52.3-5.2c0,0-13.2-61.5,8.5-100.2c12.1-21.3,19.9-36.4,23.3-66.8c2.4-22-5.6-39.2-20-55.3
	c-16.5-18.4-39.4-34.1-93.4-34.5C538.8,408.5,538.5,408.5,538.1,408.5L538.1,408.5z"/>
<path class="st1" d="M561.2,482.1c0.9,2.2,0.5,4.7-1.3,6.9L537,518.2c-2,2.5-3,3.5-4.7,3.1l-1.1-0.2l-0.6-1c-0.6-1.1-0.3-2.2,1-4.9
	l12-24c0.6-1.2,0.7-2.5,0.1-3.5c-0.5-1-1.6-1.8-3.1-2.1L533,484c-3.1-0.7-5.2-2.3-5.8-4.4c-0.7-2.1,0.2-4.3,2.4-6.3l25.3-22.3
	c2.3-2.1,3.6-2.6,4.9-2.3c0.8,0.2,1.5,0.7,1.8,1.4c0.5,1.2,0.1,2.4-1.6,4.9l-11.3,16.6c-0.8,1.1-0.9,2.2-0.5,3.1
	c0.4,0.9,1.4,1.6,2.8,1.9l4.1,1C558.1,478.3,560.3,479.9,561.2,482.1L561.2,482.1z M561.2,482.1"/>
</svg>
